<?xml version="1.0" encoding="UTF-8" standalone="no"?>
<svg
   xmlns:osb="http://www.openswatchbook.org/uri/2009/osb"
   xmlns:dc="http://purl.org/dc/elements/1.1/"
   xmlns:cc="http://creativecommons.org/ns#"
   xmlns:rdf="http://www.w3.org/1999/02/22-rdf-syntax-ns#"
   xmlns:svg="http://www.w3.org/2000/svg"
   xmlns="http://www.w3.org/2000/svg"
   xmlns:sodipodi="http://sodipodi.sourceforge.net/DTD/sodipodi-0.dtd"
   xmlns:inkscape="http://www.inkscape.org/namespaces/inkscape"
   width="210mm"
   height="297mm"
   viewBox="0 0 210 297"
   version="1.1"
   id="svg8"
   inkscape:version="1.0.1 (3bc2e813f5, 2020-09-07)"
   sodipodi:docname="logo.svg"
   inkscape:export-filename="C:\Users\mark.cherrie\Documents\GitHub\ShinyProxyImages\logo.png"
   inkscape:export-xdpi="249.4563"
   inkscape:export-ydpi="249.4563">
  <defs
     id="defs2">
    <rect
       x="216.95833"
       y="164.04167"
       width="142.87565"
       height="57.279616"
       id="rect2684" />
    <linearGradient
       id="linearGradient1019"
       osb:paint="solid">
      <stop
         style="stop-color:#1c1c1c;stop-opacity:1;"
         offset="0"
         id="stop1017" />
    </linearGradient>
    <rect
       x="18.142578"
       y="39.893746"
       width="172.35742"
       height="124.14792"
       id="rect868" />
    <rect
       x="21.922619"
       y="53.672619"
       width="102.80953"
       height="46.86905"
       id="rect849" />
    <rect
       x="18.142857"
       y="30.238095"
       width="185.20833"
       height="102.80952"
       id="rect835" />
    <filter
       style="color-interpolation-filters:sRGB;"
       inkscape:label="Drop Shadow"
       id="filter1823">
      <feFlood
         flood-opacity="0.498039"
         flood-color="rgb(12,174,33)"
         result="flood"
         id="feFlood1813" />
      <feComposite
         in="flood"
         in2="SourceGraphic"
         operator="out"
         result="composite1"
         id="feComposite1815" />
      <feGaussianBlur
         in="composite1"
         stdDeviation="37.7246"
         result="blur"
         id="feGaussianBlur1817" />
      <feOffset
         dx="-18.8623"
         dy="2.99401"
         result="offset"
         id="feOffset1819" />
      <feComposite
         in="SourceGraphic"
         in2="offset"
         operator="in"
         result="composite2"
         id="feComposite1821" />
    </filter>
  </defs>
  <sodipodi:namedview
     id="base"
     pagecolor="#ffffff"
     bordercolor="#666666"
     borderopacity="1.0"
     inkscape:pageopacity="0.0"
     inkscape:pageshadow="2"
     inkscape:zoom="0.49497475"
     inkscape:cx="974.87309"
     inkscape:cy="768.48866"
     inkscape:document-units="mm"
     inkscape:current-layer="layer1"
     inkscape:document-rotation="0"
     showgrid="true"
     inkscape:snap-text-baseline="true"
     inkscape:snap-center="true"
     inkscape:window-width="1711"
     inkscape:window-height="1040"
     inkscape:window-x="146"
     inkscape:window-y="18"
     inkscape:window-maximized="0">
    <inkscape:grid
       type="xygrid"
       id="grid1031" />
  </sodipodi:namedview>
  <metadata
     id="metadata5">
    <rdf:RDF>
      <cc:Work
         rdf:about="">
        <dc:format>image/svg+xml</dc:format>
        <dc:type
           rdf:resource="http://purl.org/dc/dcmitype/StillImage" />
        <dc:title></dc:title>
      </cc:Work>
    </rdf:RDF>
  </metadata>
  <g
     inkscape:label="Layer 1"
     inkscape:groupmode="layer"
     id="layer1">
    <g
       aria-label="exposomapps.com"
       id="text866"
       style="font-style:normal;font-weight:normal;font-size:10.5833px;line-height:1.25;font-family:sans-serif;white-space:pre;shape-inside:url(#rect868);mix-blend-mode:normal;fill:#49965d;fill-opacity:1;stroke:#000000;stroke-width:0.19367;stroke-miterlimit:4;stroke-dasharray:none;stroke-opacity:1"
       transform="matrix(2.9379826,0,0,2.9379826,-9.575049,-32.956777)"
       inkscape:export-xdpi="234.03999"
       inkscape:export-ydpi="234.03999">
      <path
         d="m 24.851906,53.201122 1.774225,0.241157 q -0.344509,1.179946 -1.343588,1.94648 -0.999078,0.766535 -2.506308,0.766535 -1.808677,0 -2.911108,-1.214397 -1.102431,-1.214397 -1.102431,-3.290069 0,-1.972318 1.111044,-3.26423 1.111044,-1.291912 3.01446,-1.291912 1.860353,0 2.876657,1.274687 1.016304,1.274686 1.016304,3.272843 l -0.0086,0.223931 h -5.968632 q 0,0.887113 0.163642,1.421103 0.172255,0.53399 0.671794,0.930176 0.49954,0.396186 1.248848,0.396186 1.455554,0 1.963706,-1.41249 z m -0.120578,-2.601049 q -0.0086,-0.938789 -0.568441,-1.533068 -0.551216,-0.594279 -1.369427,-0.594279 -0.809598,0 -1.352201,0.559828 -0.542603,0.551216 -0.637343,1.567519 z"
         style="font-style:normal;font-variant:normal;font-weight:normal;font-stretch:normal;font-size:17.6389px;font-family:'Franklin Gothic Medium';-inkscape-font-specification:'Franklin Gothic Medium, Normal';font-variant-ligatures:normal;font-variant-caps:normal;font-variant-numeric:normal;font-variant-east-asian:normal;fill:#49965d;fill-opacity:1;stroke:#000000;stroke-width:0.19367;stroke-miterlimit:4;stroke-dasharray:none;stroke-opacity:1"
         id="path896" />
      <path
         d="m 35.178587,55.974426 h -2.239314 l -1.843127,-3.16949 -2.015382,3.16949 h -1.688098 l 2.893882,-4.478627 -2.506309,-4.220245 h 2.247927 l 1.429715,2.557985 1.627809,-2.557985 h 1.645034 l -2.454632,3.772382 z"
         style="font-style:normal;font-variant:normal;font-weight:normal;font-stretch:normal;font-size:17.6389px;font-family:'Franklin Gothic Medium';-inkscape-font-specification:'Franklin Gothic Medium, Normal';font-variant-ligatures:normal;font-variant-caps:normal;font-variant-numeric:normal;font-variant-east-asian:normal;fill:#49965d;fill-opacity:1;stroke:#000000;stroke-width:0.19367;stroke-miterlimit:4;stroke-dasharray:none;stroke-opacity:1"
         id="path898" />
      <path
         d="M 38.35669,58.911372 H 36.358533 V 47.275554 h 1.877578 v 1.515843 q 0.904338,-1.696711 2.661338,-1.696711 1.446941,0 2.308216,1.257461 0.861274,1.257461 0.861274,3.212554 0,1.85174 -0.826823,3.221166 -0.818211,1.369427 -2.44602,1.369427 -1.679485,0 -2.437406,-1.395265 z m 0,-6.502622 q 0,0.947402 0.559828,1.576132 0.568441,0.620118 1.257461,0.620118 0.938789,0 1.369426,-0.818211 0.43925,-0.826824 0.43925,-2.092897 0,-1.326363 -0.43925,-2.153186 -0.43925,-0.835436 -1.309137,-0.835436 -0.78376,0 -1.334975,0.680406 -0.542603,0.680407 -0.542603,1.782839 z"
         style="font-style:normal;font-variant:normal;font-weight:normal;font-stretch:normal;font-size:17.6389px;font-family:'Franklin Gothic Medium';-inkscape-font-specification:'Franklin Gothic Medium, Normal';font-variant-ligatures:normal;font-variant-caps:normal;font-variant-numeric:normal;font-variant-east-asian:normal;fill:#49965d;fill-opacity:1;stroke:#000000;stroke-width:0.19367;stroke-miterlimit:4;stroke-dasharray:none;stroke-opacity:1"
         id="path900" />
      <path
         d="m 49.260424,56.155294 q -1.929255,0 -2.945559,-1.386652 -1.016303,-1.386652 -1.016303,-3.178103 0,-1.929255 1.119656,-3.212554 1.12827,-1.283299 2.971397,-1.283299 1.748387,0 2.868044,1.248848 1.12827,1.248848 1.12827,3.247005 0,2.058446 -1.171334,3.315907 -1.16272,1.248848 -2.954171,1.248848 z m 0.0689,-1.619196 q 1.980931,0 1.980931,-2.954172 0,-1.334975 -0.473701,-2.101509 Q 50.362853,48.70527 49.381,48.70527 q -1.016303,0 -1.50723,0.800985 -0.490926,0.792372 -0.490926,2.110122 0,1.421103 0.516764,2.170412 0.525378,0.749309 1.429716,0.749309 z"
         style="font-style:normal;font-variant:normal;font-weight:normal;font-stretch:normal;font-size:17.6389px;font-family:'Franklin Gothic Medium';-inkscape-font-specification:'Franklin Gothic Medium, Normal';font-variant-ligatures:normal;font-variant-caps:normal;font-variant-numeric:normal;font-variant-east-asian:normal;fill:#49965d;fill-opacity:1;stroke:#000000;stroke-width:0.19367;stroke-miterlimit:4;stroke-dasharray:none;stroke-opacity:1"
         id="path902" />
      <path
         d="m 54.126625,53.976269 1.843127,-0.353122 q 0.422025,1.059367 1.860353,1.059367 1.825902,0 1.825902,-1.076593 0,-0.344509 -0.284221,-0.568441 -0.28422,-0.223931 -0.671794,-0.301446 l -1.584745,-0.301446 q -2.6355,-0.508152 -2.6355,-2.575211 0,-1.154107 0.835436,-1.955093 0.835437,-0.809598 2.489084,-0.809598 2.756078,0 3.367583,2.023995 l -1.748387,0.353123 q -0.275608,-0.981853 -1.56752,-0.981853 -1.567519,0 -1.567519,0.981853 0,0.680407 1.266073,0.938789 l 1.868966,0.387574 q 2.179024,0.447862 2.179024,2.497695 0,1.438329 -1.119657,2.153187 -1.119657,0.706245 -2.661338,0.706245 -1.334975,0 -2.359892,-0.53399 -1.024916,-0.542603 -1.334975,-1.645035 z"
         style="font-style:normal;font-variant:normal;font-weight:normal;font-stretch:normal;font-size:17.6389px;font-family:'Franklin Gothic Medium';-inkscape-font-specification:'Franklin Gothic Medium, Normal';font-variant-ligatures:normal;font-variant-caps:normal;font-variant-numeric:normal;font-variant-east-asian:normal;fill:#49965d;fill-opacity:1;stroke:#000000;stroke-width:0.19367;stroke-miterlimit:4;stroke-dasharray:none;stroke-opacity:1"
         id="path904" />
      <path
         d="m 66.59788,56.155294 q -1.929255,0 -2.945559,-1.386652 -1.016304,-1.386652 -1.016304,-3.178103 0,-1.929255 1.119657,-3.212554 1.12827,-1.283299 2.971397,-1.283299 1.748387,0 2.868044,1.248848 1.128269,1.248848 1.128269,3.247005 0,2.058446 -1.171333,3.315907 -1.16272,1.248848 -2.954171,1.248848 z m 0.0689,-1.619196 q 1.980931,0 1.980931,-2.954172 0,-1.334975 -0.473701,-2.101509 -0.473701,-0.775147 -1.455554,-0.775147 -1.016304,0 -1.50723,0.800985 -0.490927,0.792372 -0.490927,2.110122 0,1.421103 0.516765,2.170412 0.525378,0.749309 1.429716,0.749309 z"
         style="font-style:normal;font-variant:normal;font-weight:normal;font-stretch:normal;font-size:17.6389px;font-family:'Franklin Gothic Medium';-inkscape-font-specification:'Franklin Gothic Medium, Normal';font-variant-ligatures:normal;font-variant-caps:normal;font-variant-numeric:normal;font-variant-east-asian:normal;fill:#49965d;fill-opacity:1;stroke:#000000;stroke-width:0.19367;stroke-miterlimit:4;stroke-dasharray:none;stroke-opacity:1"
         id="path906" />
    </g>
    <path
       d="m 239.48146,131.49662 h -6.04769 v -15.91628 q 0,-4.9596 -4.40289,-4.9596 -2.55572,0 -4.09927,1.87251 -1.51824,1.8725 -1.51824,5.5922 v 13.41117 h -6.12361 v -15.91628 q 0,-5.03551 -4.12454,-5.03551 -2.50513,0 -4.22579,2.02433 -1.69539,2.02432 -1.69539,5.51629 v 13.41117 h -5.94645 v -25.55714 h 5.59222 v 5.44038 q 2.73282,-5.97177 8.52746,-5.97177 5.64281,0 7.3382,5.97177 3.08709,-5.97177 8.52746,-5.97177 3.6944,0 5.94648,2.30268 2.25205,2.30267 2.25205,5.71872 z"
       style="font-style:normal;font-variant:normal;font-weight:normal;font-stretch:normal;font-size:17.6389px;line-height:1.25;font-family:'Franklin Gothic Medium';-inkscape-font-specification:'Franklin Gothic Medium, Normal';font-variant-ligatures:normal;font-variant-caps:normal;font-variant-numeric:normal;font-variant-east-asian:normal;white-space:pre;shape-inside:url(#rect868);mix-blend-mode:normal;fill:#000000;fill-opacity:1;stroke:#000000;stroke-width:1.46899;stroke-miterlimit:4;stroke-dasharray:none;stroke-opacity:1"
       id="path908"
       inkscape:export-xdpi="234.03999"
       inkscape:export-ydpi="234.03999" />
    <path
       d="m 268.27751,131.49662 h -5.49097 q -0.73382,-2.32798 -0.88566,-5.16204 -2.30267,5.69343 -8.654,5.69343 -3.8209,0 -6.14887,-2.22676 -2.30268,-2.25207 -2.30268,-5.64282 0,-8.80582 15.46078,-8.80582 0.60731,0 1.64477,0.0253 v -1.92312 q 0,-3.97274 -5.41505,-3.97274 -5.26328,0 -5.97177,3.97274 l -4.90899,-0.73384 q 0.40486,-3.18832 3.28951,-5.23795 2.88469,-2.07494 8.35037,-2.07494 2.96057,0 4.83307,0.50611 1.87251,0.48078 3.16301,1.67007 1.29054,1.16399 1.77129,2.55571 0.50607,1.36642 0.50607,4.65596 v 11.53866 q 0,2.50511 0.75912,5.16205 z m -6.37663,-13.00631 q -11.1844,0 -11.1844,5.33916 0,1.59417 1.11338,2.73285 1.13867,1.11338 3.41605,1.11338 3.28955,0 4.95961,-2.07493 1.69536,-2.10024 1.69536,-4.75717 z"
       style="font-style:normal;font-variant:normal;font-weight:normal;font-stretch:normal;font-size:17.6389px;line-height:1.25;font-family:'Franklin Gothic Medium';-inkscape-font-specification:'Franklin Gothic Medium, Normal';font-variant-ligatures:normal;font-variant-caps:normal;font-variant-numeric:normal;font-variant-east-asian:normal;white-space:pre;shape-inside:url(#rect868);mix-blend-mode:normal;fill:#000000;fill-opacity:1;stroke:#000000;stroke-width:1.46899;stroke-miterlimit:4;stroke-dasharray:none;stroke-opacity:1"
       id="path910"
       inkscape:export-xdpi="234.03999"
       inkscape:export-ydpi="234.03999" />
    <path
       d="m 280.29698,140.12532 h -5.87057 v -34.18584 h 5.51629 v 4.45353 q 2.65695,-4.98492 7.819,-4.98492 4.25107,0 6.78148,3.69441 2.53041,3.69439 2.53041,9.43842 0,5.44038 -2.42922,9.46373 -2.40387,4.02336 -7.18635,4.02336 -4.93428,0 -7.16104,-4.09927 z m 0,-19.10459 q 0,2.78345 1.64478,4.63065 1.67006,1.82189 3.69437,1.82189 2.75811,0 4.02334,-2.40389 1.2905,-2.4292 1.2905,-6.1489 0,-3.89683 -1.2905,-6.32602 -1.29051,-2.45449 -3.84623,-2.45449 -2.30268,0 -3.92211,1.99901 -1.59415,1.99903 -1.59415,5.23795 z"
       style="font-style:normal;font-variant:normal;font-weight:normal;font-stretch:normal;font-size:17.6389px;line-height:1.25;font-family:'Franklin Gothic Medium';-inkscape-font-specification:'Franklin Gothic Medium, Normal';font-variant-ligatures:normal;font-variant-caps:normal;font-variant-numeric:normal;font-variant-east-asian:normal;white-space:pre;shape-inside:url(#rect868);mix-blend-mode:normal;fill:#000000;fill-opacity:1;stroke:#000000;stroke-width:1.46899;stroke-miterlimit:4;stroke-dasharray:none;stroke-opacity:1"
       id="path912"
       inkscape:export-xdpi="234.03999"
       inkscape:export-ydpi="234.03999" />
    <path
       d="m 308.20736,140.12532 h -5.87053 v -34.18584 h 5.51629 v 4.45353 q 2.65691,-4.98492 7.81896,-4.98492 4.25107,0 6.78151,3.69441 2.53038,3.69439 2.53038,9.43842 0,5.44038 -2.42915,9.46373 -2.4039,4.02336 -7.18639,4.02336 -4.93427,0 -7.16107,-4.09927 z m 0,-19.10459 q 0,2.78345 1.64478,4.63065 1.67006,1.82189 3.69441,1.82189 2.75814,0 4.02336,-2.40389 1.2905,-2.4292 1.2905,-6.1489 0,-3.89683 -1.2905,-6.32602 -1.29053,-2.45449 -3.84626,-2.45449 -2.30264,0 -3.92214,1.99901 -1.59415,1.99903 -1.59415,5.23795 z"
       style="font-style:normal;font-variant:normal;font-weight:normal;font-stretch:normal;font-size:17.6389px;line-height:1.25;font-family:'Franklin Gothic Medium';-inkscape-font-specification:'Franklin Gothic Medium, Normal';font-variant-ligatures:normal;font-variant-caps:normal;font-variant-numeric:normal;font-variant-east-asian:normal;white-space:pre;shape-inside:url(#rect868);mix-blend-mode:normal;fill:#000000;fill-opacity:1;stroke:#000000;stroke-width:1.46899;stroke-miterlimit:4;stroke-dasharray:none;stroke-opacity:1"
       id="path914"
       inkscape:export-xdpi="234.03999"
       inkscape:export-ydpi="234.03999" />
    <path
       d="m 327.13482,125.62607 5.41509,-1.03747 q 1.23988,3.11241 5.46566,3.11241 5.36447,0 5.36447,-3.16302 0,-1.01216 -0.83503,-1.67007 -0.83503,-0.65791 -1.97371,-0.88564 l -4.65595,-0.88565 q -7.74305,-1.49294 -7.74305,-7.56592 0,-3.39074 2.45453,-5.74403 2.45447,-2.37859 7.31283,-2.37859 8.09733,0 9.89394,5.94647 l -5.13674,1.03747 q -0.80974,-2.88467 -4.60534,-2.88467 -4.60535,0 -4.60535,2.88467 0,1.99902 3.71969,2.75814 l 5.491,1.13869 q 6.40192,1.31581 6.40192,7.33818 0,4.22579 -3.28953,6.32603 -3.28949,2.07494 -7.81896,2.07494 -3.92214,0 -6.9333,-1.56885 -3.01123,-1.59416 -3.92217,-4.83309 z"
       style="font-style:normal;font-variant:normal;font-weight:normal;font-stretch:normal;font-size:17.6389px;line-height:1.25;font-family:'Franklin Gothic Medium';-inkscape-font-specification:'Franklin Gothic Medium, Normal';font-variant-ligatures:normal;font-variant-caps:normal;font-variant-numeric:normal;font-variant-east-asian:normal;white-space:pre;shape-inside:url(#rect868);mix-blend-mode:normal;fill:#000000;fill-opacity:1;stroke:#000000;stroke-width:1.46899;stroke-miterlimit:4;stroke-dasharray:none;stroke-opacity:1"
       id="path916"
       inkscape:export-xdpi="234.03999"
       inkscape:export-ydpi="234.03999" />
    <path
       d="m 354.49728,127.87332 0.77658,3.39121 -3.19708,0.73223 -0.77658,-3.39121 z"
       style="font-style:normal;font-variant:normal;font-weight:normal;font-stretch:normal;font-size:17.6389px;line-height:1.25;font-family:'Franklin Gothic Medium';-inkscape-font-specification:'Franklin Gothic Medium, Normal';font-variant-ligatures:normal;font-variant-caps:normal;font-variant-numeric:normal;font-variant-east-asian:normal;white-space:pre;shape-inside:url(#rect868);mix-blend-mode:normal;fill:#49965d;fill-opacity:1;stroke:#000000;stroke-width:0.571;stroke-miterlimit:4;stroke-dasharray:none;stroke-opacity:1"
       id="path918"
       inkscape:export-xdpi="234.03999"
       inkscape:export-ydpi="234.03999" />
    <path
       d="m 366.12082,126.74818 2.6026,0.26559 q -0.50457,2.52293 -1.95196,3.73128 -1.44735,1.20835 -3.49225,1.20835 -2.77524,0 -4.27571,-2.01834 -1.48721,-2.03163 -1.48721,-4.9662 0,-3.02751 1.63327,-5.00602 1.63328,-1.97851 4.35536,-1.97851 4.38197,0 5.2185,4.62095 l -2.6026,0.35854 q -0.34526,-2.49638 -2.45652,-2.49638 -1.54033,0 -2.2441,1.35442 -0.69049,1.34113 -0.69049,3.25325 0,2.03162 0.71704,3.13375 0.73034,1.10212 2.03163,1.10212 1.9918,0 2.64244,-2.56277 z"
       style="font-style:normal;font-variant:normal;font-weight:normal;font-stretch:normal;font-size:17.6389px;line-height:1.25;font-family:'Franklin Gothic Medium';-inkscape-font-specification:'Franklin Gothic Medium, Normal';font-variant-ligatures:normal;font-variant-caps:normal;font-variant-numeric:normal;font-variant-east-asian:normal;white-space:pre;shape-inside:url(#rect868);mix-blend-mode:normal;fill:#49965d;fill-opacity:1;stroke:#000000;stroke-width:0.571;stroke-miterlimit:4;stroke-dasharray:none;stroke-opacity:1"
       id="path920"
       inkscape:export-xdpi="234.03999"
       inkscape:export-ydpi="234.03999" />
    <path
       d="m 376.29219,131.95339 q -2.9744,0 -4.54124,-2.13785 -1.56688,-2.13786 -1.56688,-4.8998 0,-2.97441 1.72619,-4.95292 1.73948,-1.9785 4.58116,-1.9785 2.69554,0 4.42172,1.92539 1.73952,1.92539 1.73952,5.00603 0,3.17358 -1.80592,5.11225 -1.79258,1.9254 -4.55455,1.9254 z m 0.10645,-2.49638 q 3.05408,0 3.05408,-4.55455 0,-2.05818 -0.73035,-3.23998 -0.73031,-1.19507 -2.24406,-1.19507 -1.56687,0 -2.32376,1.23491 -0.75689,1.22163 -0.75689,3.25325 0,2.19097 0.79674,3.34621 0.80998,1.15523 2.20424,1.15523 z"
       style="font-style:normal;font-variant:normal;font-weight:normal;font-stretch:normal;font-size:17.6389px;line-height:1.25;font-family:'Franklin Gothic Medium';-inkscape-font-specification:'Franklin Gothic Medium, Normal';font-variant-ligatures:normal;font-variant-caps:normal;font-variant-numeric:normal;font-variant-east-asian:normal;white-space:pre;shape-inside:url(#rect868);mix-blend-mode:normal;fill:#49965d;fill-opacity:1;stroke:#000000;stroke-width:0.571;stroke-miterlimit:4;stroke-dasharray:none;stroke-opacity:1"
       id="path922"
       inkscape:export-xdpi="234.03999"
       inkscape:export-ydpi="234.03999" />
    <path
       d="m 405.45196,131.67453 h -3.17357 v -8.35222 q 0,-2.6026 -2.31049,-2.6026 -1.34113,0 -2.15111,0.98261 -0.79675,0.98261 -0.79675,2.93456 v 7.03765 h -3.21338 v -8.35222 q 0,-2.64244 -2.16439,-2.64244 -1.31462,0 -2.21755,1.06228 -0.88965,1.06229 -0.88965,2.89473 v 7.03765 h -3.12047 v -13.41136 h 2.93455 v 2.85489 q 1.43411,-3.13374 4.47488,-3.13374 2.96113,0 3.85078,3.13374 1.62,-3.13374 4.47488,-3.13374 1.93869,0 3.12048,1.20835 1.18179,1.20835 1.18179,3.00096 z"
       style="font-style:normal;font-variant:normal;font-weight:normal;font-stretch:normal;font-size:17.6389px;line-height:1.25;font-family:'Franklin Gothic Medium';-inkscape-font-specification:'Franklin Gothic Medium, Normal';font-variant-ligatures:normal;font-variant-caps:normal;font-variant-numeric:normal;font-variant-east-asian:normal;white-space:pre;shape-inside:url(#rect868);mix-blend-mode:normal;fill:#49965d;fill-opacity:1;stroke:#000000;stroke-width:0.571;stroke-miterlimit:4;stroke-dasharray:none;stroke-opacity:1"
       id="path924"
       inkscape:export-xdpi="234.03999"
       inkscape:export-ydpi="234.03999" />
    <rect
       style="opacity:0.998;fill:none;fill-opacity:1;stroke:none;stroke-width:1.093;stroke-linecap:round;stroke-linejoin:round;stroke-miterlimit:4;stroke-dasharray:none;stroke-opacity:1"
       id="rect2665"
       width="391.58334"
       height="127"
       x="21.166666"
       y="63.5"
       ry="1.0172515e-05"
       inkscape:export-xdpi="234.03999"
       inkscape:export-ydpi="234.03999" />
    <rect
       style="opacity:0.998;fill:none;fill-opacity:1;stroke:none;stroke-width:0.603169;stroke-linecap:round;stroke-linejoin:round;stroke-miterlimit:4;stroke-dasharray:none;stroke-opacity:1"
       id="rect2667"
       width="396.875"
       height="95.026413"
       x="34.395832"
       y="68.903458"
       ry="0"
       inkscape:export-xdpi="234.03999"
       inkscape:export-ydpi="234.03999" />
    <path
       style="fill:none;stroke:none;stroke-width:0.264583px;stroke-linecap:butt;stroke-linejoin:miter;stroke-opacity:1"
       d="m 222.25,222.25 c 0,0 58.20833,-21.16667 47.625,-47.625 -10.58334,-26.45834 0,0 0,0"
       id="path2760"
       sodipodi:nodetypes="csc" />
  </g>
</svg>
